<svg width="97" height="26" viewBox="0 0 97 26" fill="none" xmlns="http://www.w3.org/2000/svg">
<path d="M9.31666 22.8891C9.64716 22.8602 9.93383 22.9646 10.1767 23.2024C10.4378 23.4386 10.5861 23.7587 10.6214 24.1626C10.6568 24.5666 10.5296 24.9107 10.24 25.1951C9.96868 25.4778 9.59434 25.6401 9.11695 25.6819L8.6212 25.7252C7.7215 25.8039 6.87517 25.6467 6.0822 25.2536C5.30599 24.8404 4.67138 24.2484 4.1784 23.4774C3.68541 22.7065 3.39474 21.8161 3.30638 20.8062L2.71121 14.0034L1.44429 14.1142C1.05871 14.148 0.736929 14.0651 0.478956 13.8657C0.220984 13.6662 0.0775405 13.4012 0.0486255 13.0707C0.0164975 12.7035 0.110143 12.3993 0.329562 12.1581C0.54898 11.9169 0.851482 11.7794 1.23707 11.7456L2.50399 11.6348L2.15701 7.66879C2.12167 7.26484 2.22128 6.92309 2.45585 6.64355C2.69041 6.364 3.00967 6.20656 3.41362 6.17122C3.81756 6.13588 4.15931 6.23549 4.43886 6.47006C4.7184 6.70462 4.87585 7.02388 4.91119 7.42783L5.25817 11.3938L7.59922 11.189C7.9848 11.1553 8.30658 11.2382 8.56456 11.4376C8.82253 11.6371 8.96758 11.9204 8.99971 12.2876C9.02862 12.6181 8.93337 12.904 8.71395 13.1452C8.49453 13.3864 8.19203 13.5239 7.80644 13.5576L5.46539 13.7624L6.06056 20.5653C6.12482 21.2997 6.38061 21.8971 6.82792 22.3575C7.27524 22.818 7.79268 23.0225 8.38024 22.9711L9.31666 22.8891Z" fill="#484848"/>
<path d="M18.8664 9.48171C19.8395 9.39657 20.6143 9.4768 21.1909 9.72239C21.7674 9.96797 22.075 10.3111 22.1135 10.7518C22.1248 10.8803 22.1236 10.9729 22.1101 11.0296C21.9962 11.6316 21.6547 11.9575 21.0855 12.0073C20.9937 12.0153 20.8544 12.009 20.6676 11.9884C19.9219 11.9241 19.3195 11.912 18.8605 11.9522C17.5385 12.0679 16.5 12.464 15.7451 13.1406C14.9903 13.8172 14.6578 14.6696 14.7478 15.6978L15.4514 23.74C15.4899 24.1807 15.4003 24.5308 15.1825 24.7904C14.983 25.0484 14.6538 25.1975 14.1948 25.2376C13.7541 25.2762 13.4048 25.1957 13.1468 24.9963C12.8872 24.7785 12.7373 24.44 12.6972 23.981L11.6201 11.6698C11.5815 11.2292 11.6712 10.879 11.889 10.6195C12.1068 10.3599 12.436 10.2108 12.8767 10.1723C13.7948 10.0919 14.294 10.5108 14.3743 11.4289L14.4201 11.9522C14.9147 11.2613 15.5499 10.697 16.3256 10.259C17.1014 9.82114 17.9483 9.56203 18.8664 9.48171Z" fill="#484848"/>
<path d="M29.2349 8.63009C30.6487 8.5064 31.9545 8.73444 33.1523 9.31421C34.3669 9.87401 35.3561 10.7125 36.1199 11.8298C36.9005 12.9272 37.3534 14.1919 37.4787 15.6241L38.016 21.7659C38.0514 22.1698 37.9434 22.5216 37.6921 22.8211C37.4575 23.1006 37.1383 23.2581 36.7343 23.2934C36.3304 23.3288 35.9794 23.2299 35.6815 22.997C35.4004 22.7441 35.2421 22.4156 35.2068 22.0117L35.1176 20.9926C34.5441 21.8384 33.8175 22.5217 32.938 23.0427C32.0585 23.5637 31.0863 23.8708 30.0213 23.964C28.6993 24.0796 27.4678 23.8544 26.3266 23.2881C25.2038 22.7203 24.2797 21.8853 23.5542 20.7832C22.8455 19.6611 22.4285 18.3839 22.3032 16.9518C22.1779 15.5196 22.3951 14.1962 22.9549 12.9816C23.5131 11.7487 24.3417 10.7511 25.4406 9.98889C26.5563 9.20672 27.821 8.75379 29.2349 8.63009ZM30.3553 21.437C31.2734 21.3567 32.0803 21.0641 32.7762 20.5592C33.4889 20.0343 34.0226 19.3678 34.3775 18.5596C34.7307 17.7332 34.8648 16.8334 34.7796 15.8602C34.6945 14.8871 34.4062 14.0242 33.9148 13.2716C33.4235 12.519 32.7821 11.9553 31.9907 11.5805C31.2161 11.1858 30.3698 11.0285 29.4517 11.1089C28.5337 11.1892 27.7183 11.4918 27.0056 12.0167C26.3098 12.5216 25.776 13.1881 25.4044 14.0162C25.0512 14.8427 24.9171 15.7425 25.0023 16.7156C25.0874 17.6888 25.3757 18.5516 25.8671 19.3042C26.3752 20.0368 27.0166 20.6005 27.7912 20.9953C28.5825 21.3701 29.4373 21.5173 30.3553 21.437Z" fill="#484848"/>
<path d="M52.0582 0.250207C52.4806 0.21326 52.8315 0.31207 53.111 0.546637C53.3906 0.781204 53.5488 1.10964 53.5858 1.53195L54.6845 14.091C54.8098 15.5232 54.5842 16.8565 54.0077 18.0911C53.4479 19.3057 52.6193 20.3033 51.522 21.0838C50.4414 21.8444 49.1942 22.2866 47.7804 22.4103C46.3666 22.5339 45.0432 22.3167 43.8103 21.7585C42.5941 21.1803 41.6049 20.3418 40.8427 19.2429C40.0789 18.1256 39.6343 16.8509 39.509 15.4187C39.3837 13.9865 39.5734 12.6655 40.0781 11.4558C40.5996 10.226 41.3639 9.23409 42.371 8.47992C43.3965 7.72414 44.5702 7.28842 45.8923 7.17276C46.9572 7.07959 47.968 7.21318 48.9246 7.57353C49.8812 7.93387 50.7154 8.4807 51.4271 9.21401L50.7765 1.77773C50.7396 1.35542 50.8384 1.00449 51.0729 0.724947C51.3259 0.443795 51.6543 0.285548 52.0582 0.250207ZM47.5635 19.9315C48.4816 19.8512 49.2886 19.5586 49.9845 19.0536C50.6971 18.5287 51.2301 17.8531 51.5833 17.0266C51.9365 16.2001 52.0706 15.3003 51.9854 14.3271C51.9003 13.354 51.6128 12.5003 51.1231 11.7661C50.6317 11.0135 49.9903 10.4498 49.199 10.075C48.4243 9.68023 47.578 9.52301 46.66 9.60333C45.7419 9.68365 44.9265 9.98625 44.2139 10.5111C43.518 11.0161 42.9843 11.6826 42.6127 12.5107C42.2578 13.3188 42.123 14.2094 42.2081 15.1825C42.2932 16.1557 42.5815 17.0186 43.0729 17.7711C43.5826 18.5221 44.2248 19.095 44.9994 19.4898C45.7908 19.8646 46.6455 20.0118 47.5635 19.9315Z" fill="#484848"/>
<path d="M71.7722 12.374C71.8027 12.7229 71.709 13.0271 71.4912 13.2867C71.2718 13.5279 70.9785 13.6646 70.6112 13.6967L60.1454 14.6123C60.4598 15.8799 61.1289 16.8668 62.1528 17.5728C63.195 18.2771 64.4138 18.5683 65.8093 18.4462C66.3601 18.398 66.9205 18.2472 67.4904 17.9939C68.0786 17.7389 68.5527 17.4476 68.9126 17.1201C69.152 16.8956 69.4461 16.7682 69.7949 16.7376C70.1438 16.7071 70.4273 16.7748 70.6453 16.9408C70.9999 17.1873 71.1925 17.485 71.223 17.8338C71.2519 18.1643 71.1291 18.4526 70.8546 18.6986C70.2737 19.249 69.5287 19.7212 68.6196 20.1153C67.7288 20.5077 66.8611 20.7409 66.0165 20.8148C64.5109 20.9465 63.1332 20.7433 61.8835 20.2051C60.6322 19.6485 59.6163 18.8215 58.8357 17.7242C58.0735 16.6253 57.6282 15.3414 57.4997 13.8725C57.3711 12.4036 57.5684 11.0634 58.0915 9.85206C58.6313 8.62072 59.4332 7.63474 60.497 6.89411C61.5775 6.13351 62.8339 5.69056 64.2661 5.56526C65.6799 5.44157 66.9282 5.64688 68.0111 6.1812C69.0939 6.71553 69.9597 7.51861 70.6086 8.59045C71.2574 9.66229 71.6452 10.9235 71.7722 12.374ZM64.4733 7.93385C63.1329 8.05112 62.0726 8.51392 61.2922 9.32227C60.5302 10.129 60.0929 11.1571 59.9801 12.4066L69.1516 11.6042C68.8787 10.3884 68.3337 9.44628 67.5166 8.7777C66.6996 8.10911 65.6851 7.82783 64.4733 7.93385Z" fill="#484848"/>
<path d="M75.9525 12.6236C76.6254 12.5647 77.2519 12.6707 77.832 12.9416C78.4113 13.2039 78.8804 13.5975 79.2393 14.1225C79.6068 14.6467 79.8203 15.2495 79.88 15.9311L80.1551 19.0756C80.1649 19.1878 80.1387 19.2857 80.0765 19.3694C80.0135 19.4444 79.9216 19.4873 79.8008 19.4978C79.6887 19.5076 79.5908 19.4814 79.5071 19.4192C79.4313 19.3476 79.3884 19.2557 79.3786 19.1436L79.2903 18.1342C79.0456 18.6163 78.6848 19.013 78.2078 19.3242C77.7387 19.6261 77.1979 19.8038 76.5854 19.8574C75.9039 19.917 75.2735 19.8157 74.6942 19.5534C74.1141 19.2825 73.6403 18.885 73.2728 18.3608C72.9139 17.8358 72.7051 17.2369 72.6462 16.564C72.5866 15.8824 72.6879 15.252 72.9501 14.6727C73.221 14.0926 73.619 13.6232 74.1439 13.2643C74.6681 12.8968 75.271 12.6832 75.9525 12.6236ZM76.522 19.1327C77.0569 19.0859 77.5291 18.9185 77.9385 18.6306C78.348 18.3427 78.6542 17.9682 78.8573 17.5071C79.069 17.0452 79.1511 16.5425 79.1035 15.999C79.056 15.4555 78.8879 14.9747 78.5992 14.5566C78.3191 14.1378 77.9525 13.8221 77.4992 13.6097C77.0453 13.3886 76.5508 13.3015 76.0159 13.3483C75.4811 13.3951 75.0093 13.5667 74.6005 13.8633C74.1911 14.1512 73.8805 14.5261 73.6688 14.988C73.4571 15.4498 73.3751 15.9525 73.4226 16.496C73.4702 17.0395 73.6383 17.5203 73.927 17.9384C74.2156 18.3565 74.5866 18.6718 75.0398 18.8842C75.4931 19.0967 75.9871 19.1795 76.522 19.1327Z" fill="#484848"/>
<path d="M84.4637 11.879C85.1452 11.8193 85.776 11.925 86.3561 12.1959C86.9354 12.4581 87.4045 12.8517 87.7634 13.3767C88.1309 13.9009 88.3444 14.5038 88.4041 15.1853C88.4629 15.8582 88.3569 16.4847 88.086 17.0648C87.8238 17.6441 87.4305 18.1175 86.9063 18.485C86.3814 18.8439 85.7781 19.0531 85.0966 19.1127C84.484 19.1663 83.9163 19.0856 83.3933 18.8706C82.8781 18.6462 82.4582 18.3178 82.1335 17.8855L82.4868 21.9229C82.4973 22.0437 82.4711 22.1416 82.4081 22.2167C82.3452 22.2917 82.2533 22.3345 82.1325 22.3451C82.0203 22.3549 81.9224 22.3287 81.8387 22.2665C81.7637 22.2035 81.7209 22.1116 81.7103 21.9909L81.1657 15.7664L81.1635 15.7406C81.114 15.0755 81.2251 14.4573 81.4967 13.8858C81.7684 13.3144 82.1627 12.854 82.6798 12.5045C83.2048 12.1456 83.7994 11.9371 84.4637 11.879ZM85.0332 18.3881C85.568 18.3413 86.0402 18.1739 86.4497 17.886C86.8592 17.5981 87.1697 17.2232 87.3814 16.7613C87.5931 16.2994 87.6752 15.7968 87.6276 15.2532C87.5801 14.7097 87.412 14.2289 87.1233 13.8109C86.8346 13.3928 86.4637 13.0775 86.0104 12.865C85.5564 12.644 85.062 12.5568 84.5271 12.6036C83.9922 12.6504 83.5204 12.8221 83.1117 13.1187C82.7023 13.4066 82.3917 13.7815 82.18 14.2433C81.9769 14.7045 81.8992 15.2068 81.9467 15.7503C81.9943 16.2938 82.1581 16.7749 82.4381 17.1938C82.7268 17.6119 83.0978 17.9271 83.551 18.1396C84.0042 18.352 84.4983 18.4349 85.0332 18.3881Z" fill="#484848"/>
<path d="M92.9913 11.1329C93.6729 11.0733 94.3037 11.1789 94.8837 11.4498C95.463 11.7121 95.9321 12.1057 96.291 12.6306C96.6585 13.1548 96.8721 13.7577 96.9317 14.4392C96.9906 15.1122 96.8846 15.7386 96.6137 16.3187C96.3514 16.898 95.9582 17.3714 95.434 17.7389C94.909 18.0978 94.3057 18.307 93.6242 18.3667C93.0117 18.4203 92.4439 18.3395 91.9209 18.1245C91.4058 17.9001 90.9859 17.5717 90.6612 17.1394L91.0144 21.1769C91.025 21.2976 90.9988 21.3955 90.9358 21.4706C90.8728 21.5457 90.7809 21.5885 90.6601 21.599C90.548 21.6088 90.4501 21.5826 90.3664 21.5204C90.2913 21.4574 90.2485 21.3656 90.238 21.2448L89.6934 15.0204L89.6911 14.9945C89.6416 14.3294 89.7527 13.7112 90.0244 13.1398C90.296 12.5683 90.6904 12.1079 91.2075 11.7584C91.7324 11.3995 92.3271 11.191 92.9913 11.1329ZM93.5608 17.642C94.0957 17.5952 94.5679 17.4278 94.9773 17.1399C95.3868 16.852 95.6974 16.4771 95.9091 16.0152C96.1208 15.5534 96.2028 15.0507 96.1553 14.5072C96.1077 13.9637 95.9396 13.4829 95.6509 13.0648C95.3622 12.6467 94.9913 12.3314 94.538 12.119C94.0841 11.8979 93.5896 11.8108 93.0547 11.8576C92.5199 11.9044 92.0481 12.076 91.6394 12.3726C91.2299 12.6605 90.9193 13.0354 90.7076 13.4973C90.5046 13.9584 90.4268 14.4607 90.4744 15.0042C90.5219 15.5477 90.6857 16.0289 90.9658 16.4477C91.2544 16.8658 91.6254 17.1811 92.0786 17.3935C92.5319 17.606 93.0259 17.6888 93.5608 17.642Z" fill="#484848"/>
</svg>
